<svg xmlns="http://www.w3.org/2000/svg" width="450" height="340.986"><g fill-rule="evenodd"><path d="M22.73 0C10.176 0 0 10.178 0 22.73v295.524c0 12.554 10.176 22.732 22.73 22.732h404.538c12.554 0 22.732-10.178 22.732-22.732V22.729C450 10.178 439.822 0 427.268 0H22.73" fill="#d52b1e"/><path d="M190.282 153.86c6.123-45.278 26.308-126.94 64.804-126.94 44.941 0 97.746 150.964 97.733 275.947h-41.444c0-131.088-32.108-249.202-55.211-249.207-24.1-.002-45.221 80.343-45.221 233.418h-41.388c0-153.075-20.993-233.418-45.222-233.418-23.06 0-55.146 118.141-55.146 249.207H27.743c.04-125.09 52.71-275.961 97.733-275.946 38.442.013 58.634 81.651 64.806 126.938" fill="#fdc82f"/><path d="M163.196 252.64h190.9v-48.243h-190.9v48.243z" fill="#d52b1e"/><path d="M334.84 247.799h12.012v-39.52H334.84v39.52zM391.027 208.28h8.18l-2.777 10.77h-5.948l.545-10.77M413.303 214.133c7.991 0 15.499 2.017 15.535 9.861H417.43c0-2.702-1.578-3.93-4.24-3.93-1.58 0-3.716.656-3.716 3.132.003 4.11 6.501 3.288 12.02 4.926 4.956 1.47 8.392 4.428 8.392 9.204 0 7.316-5.74 11.364-16.584 11.407-11.37.045-15.65-4.054-15.685-11.407h11.558c0 2.775 1.725 4.427 4.163 4.427 2.919 0 4.243-1.108 4.243-3.171 0-4.296-7.968-4.185-12.667-5.722-3.195-1.047-6.099-3.416-6.099-8.445 0-4.202 3.152-10.282 14.487-10.282M167.289 235.822c-1.994 7.857-8.511 12.95-16.64 12.952-9.813 0-17.279-7.427-17.269-18.174.008-10.733 6.643-18.16 17.27-18.17 8.81-.008 14.876 5.11 16.698 12.978l-11.242.001c-.862-2.364-2.518-4.208-5.457-4.21-4.96-.001-6.268 5.255-6.266 9.401.001 4.15 1.306 9.403 6.266 9.403 2.927 0 4.58-1.828 5.445-4.18h11.195M84.417 208.283h14.352l6.247 23.346 6.247-23.346h14.362l6.275 40.49h-11.841l-3.128-23.663-6.471 23.664H99.572l-6.47-23.664-3.13 23.664h-11.85l6.295-40.491M268.5 228.439v19.367h-11.875v-34.527H268.5v2.697c3.006-2.342 5.723-3.546 11.886-3.546 6.693 0 12.085 4.473 12.088 9.169v26.207h-11.96V228.8c.005-3.157-2.822-5.73-5.9-5.73-3.958 0-5.927 3.503-6.114 5.368M374.45 216.704v-8.425h12.012v39.52H374.45v-1.918c-1.577 1.425-3.646 2.88-8.823 2.88-5.825 0-15.079-3.237-15.086-17.14-.008-13.884 9.25-17.488 15.836-17.488 4.783 0 7.042 1.651 8.073 2.57zm-12.464 14.917c0 5.403 2.514 8.856 6.644 8.856 2.476 0 4.548-1.079 5.826-3.33V226.78c-.64-2.289-2.863-3.976-5.826-3.977-4.137-.003-6.644 3.414-6.644 8.818M216.754 230.605c.01-10.733 6.97-18.162 18.117-18.172 11.15-.01 18.11 7.44 18.118 18.172.01 10.745-6.97 18.17-18.118 18.17-11.136.002-18.126-7.425-18.117-18.17zm25 0c.002-4.147-1.435-9.402-6.883-9.402-5.448-.003-6.884 5.255-6.883 9.402.002 4.147 1.435 9.402 6.883 9.402s6.882-5.255 6.882-9.402M171.474 208.283h20.637c12.912 0 21.711 8.02 21.711 20.245 0 12.224-8.797 20.246-21.71 20.246h-20.638v-40.491zm13.652 30.919h6.24c4.042 0 8.963-2.465 8.963-10.674 0-8.199-4.921-10.673-8.964-10.673h-6.239v21.347M313.898 212.435c8.523-.008 15.55 3.127 16.097 10.01V247.8h-12.021v-3.418c-2.92 2.501-5.828 4.378-11.082 4.378-6.12 0-11.051-4.838-11.051-10.51 0-5.671 3.493-11.972 17.475-11.97 3.605.001 4.655-1.417 4.658-3.106.005-2.075-2.387-3.232-4.389-3.232-2.002 0-4.273.834-4.273 3.003H298.05c0-5.088 3.42-10.498 15.847-10.51zm-.666 19.456c-2.773 0-5.339 1.48-5.339 4.315 0 1.837 1.086 3.422 3.92 3.421 2.712 0 5.605-1.608 6.16-4.943v-3.158c-.916.5-2.99.365-4.741.365" fill="#fff"/><path d="M371.196 275.921h7.38c3.653 0 6.086 1.962 6.086 4.555 0 2.394-1.844 3.965-4.123 4.162v.078c3.495 1.178 4.005 3.612 4.046 6.91h-3.298c-.118-3.965-.983-5.692-4.476-5.692H374.1v5.693h-2.904V275.92zm2.904 7.5h3.456c2.71 0 3.808-.943 3.808-2.71 0-1.335-.825-2.278-3.337-2.278H374.1v4.987zm3.141-12.958a13.48 13.48 0 0113.507 13.507 13.48 13.48 0 01-13.507 13.507 13.48 13.48 0 01-13.506-13.507 13.48 13.48 0 0113.506-13.507zm0 25.562c6.637 0 12.055-5.38 12.055-12.055s-5.418-12.054-12.055-12.054c-6.634 0-12.054 5.38-12.054 12.054 0 6.676 5.42 12.055 12.054 12.055" fill="#fdc82f"/></g></svg>